<?xml version="1.0" standalone="no"?>
<!DOCTYPE svg PUBLIC "-//W3C//DTD SVG 20010904//EN"
 "http://www.w3.org/TR/2001/REC-SVG-20010904/DTD/svg10.dtd">
<svg version="1.0" xmlns="http://www.w3.org/2000/svg"
 width="700.000000pt" height="700.000000pt" viewBox="0 0 700.000000 700.000000"
 preserveAspectRatio="xMidYMid meet">
<metadata>
Created by potrace 1.14, written by Peter Selinger 2001-2017
</metadata>
<g transform="translate(0.000000,700.000000) scale(0.100000,-0.100000)"
fill="#000000" stroke="none">
<path d="M2015 6637 c-154 -32 -252 -72 -351 -142 -184 -132 -313 -331 -380
-590 -18 -66 -18 -70 -29 -135 -4 -25 -9 -52 -10 -60 -17 -97 -23 -367 -10
-515 10 -116 28 -255 49 -375 12 -67 11 -76 -3 -81 -9 -4 -50 -19 -91 -34
-151 -56 -399 -177 -529 -258 -202 -126 -400 -304 -494 -445 -106 -159 -158
-310 -163 -477 -8 -253 90 -476 305 -692 207 -208 544 -407 913 -539 40 -15
74 -27 76 -29 1 -1 -4 -37 -12 -81 -8 -43 -18 -99 -21 -124 -3 -25 -8 -52 -10
-60 -2 -8 -7 -51 -10 -95 -4 -44 -9 -93 -11 -110 -6 -38 -6 -383 0 -410 2 -11
7 -49 11 -85 12 -108 20 -143 57 -265 135 -446 460 -693 898 -681 69 2 161 12
205 21 310 65 674 259 1017 541 l76 63 114 -90 c128 -102 356 -256 470 -317
140 -76 366 -167 467 -188 182 -38 380 -40 511 -5 250 65 444 228 569 479 30
60 84 209 95 262 3 14 8 36 11 50 5 24 19 116 30 205 6 48 6 363 0 420 -2 22
-7 69 -10 105 -3 36 -10 92 -15 125 -5 33 -12 78 -15 100 -4 22 -11 58 -16 80
-11 52 -11 65 1 65 27 0 311 121 445 189 385 197 625 411 755 676 61 123 80
199 85 335 15 371 -223 716 -686 994 -124 75 -325 173 -474 231 -66 25 -123
50 -127 53 -4 4 -3 26 2 49 13 57 38 227 45 304 4 35 8 80 10 99 6 45 6 363 1
415 -46 461 -223 779 -516 932 -79 41 -185 78 -260 90 -59 10 -262 10 -325 0
-92 -15 -255 -58 -310 -82 -16 -8 -59 -26 -95 -40 -59 -25 -134 -62 -245 -124
-82 -46 -294 -193 -403 -280 l-114 -90 -76 63 c-124 100 -302 231 -342 249 -8
4 -43 24 -76 46 -203 128 -483 233 -693 261 -90 12 -232 11 -296 -3z m265
-522 c176 -28 430 -155 690 -346 163 -120 159 -100 48 -221 -119 -131 -220
-251 -337 -403 -51 -66 -101 -121 -110 -121 -9 -1 -38 -4 -66 -8 -27 -4 -63
-8 -80 -10 -16 -2 -46 -7 -65 -10 -19 -3 -51 -8 -70 -11 -19 -2 -46 -7 -60 -9
-14 -3 -54 -10 -90 -16 -86 -13 -102 -17 -235 -45 -129 -28 -126 -28 -123 -17
2 6 -5 59 -17 132 -20 120 -27 425 -13 551 12 99 53 250 89 326 57 119 160
202 269 215 36 4 118 1 170 -7z m2664 -6 c159 -43 267 -236 311 -559 12 -87
12 -356 1 -435 -3 -16 -8 -52 -11 -80 -7 -52 -10 -69 -20 -122 -5 -29 -8 -31
-30 -23 -37 14 -398 86 -482 96 -13 1 -40 5 -60 8 -39 7 -69 11 -163 22 -78 9
-82 11 -140 89 -96 126 -262 326 -363 437 -79 88 -96 112 -87 123 6 8 53 45
103 83 388 293 720 420 941 361z m-1345 -921 c50 -56 91 -105 91 -108 0 -4
-88 -6 -195 -6 l-194 0 22 25 c12 14 27 30 32 37 47 55 141 154 146 154 4 0
48 -46 98 -102z m131 -632 c231 -6 353 -13 378 -21 7 -3 63 -83 125 -178 135
-209 116 -178 228 -372 122 -213 127 -221 199 -364 l63 -123 -57 -112 c-84
-165 -127 -242 -251 -451 -112 -188 -285 -458 -302 -468 -31 -19 -668 -35
-933 -22 -161 7 -284 16 -292 22 -15 8 -181 262 -275 418 -123 206 -215 372
-295 534 l-41 85 44 85 c163 314 410 733 531 899 37 50 41 52 86 53 26 0 56 2
67 4 11 2 119 7 240 11 121 3 222 8 223 10 2 1 9 1 15 -1 7 -2 118 -6 247 -9z
m1137 -121 c66 -11 223 -46 223 -51 0 -9 -74 -222 -85 -242 -11 -23 -13 -22
-52 45 -22 37 -50 85 -61 105 -12 20 -32 54 -45 75 -45 71 -51 87 -34 80 9 -3
33 -9 54 -12z m-2679 -3 c-8 -21 -181 -313 -183 -310 -5 6 -85 246 -85 255 0
8 129 41 200 50 19 3 37 7 39 9 8 7 33 4 29 -4z m3762 -346 c409 -208 591
-433 533 -656 -55 -214 -351 -446 -798 -624 l-110 -44 -66 192 c-63 181 -90
255 -109 301 -5 11 -30 70 -55 132 l-47 112 37 88 c62 149 163 418 201 536 20
62 38 115 40 118 6 11 240 -86 374 -155z m-4326 -400 l76 -188 -54 -132 c-30
-72 -62 -151 -71 -176 -9 -25 -21 -54 -25 -65 -15 -34 -88 -247 -101 -295 -21
-78 -25 -79 -136 -35 -204 79 -463 220 -572 311 -331 276 -312 538 58 812 136
102 300 189 521 278 l105 42 62 -181 c33 -100 95 -267 137 -371z m459 -934
c37 -64 79 -137 93 -161 23 -38 24 -42 8 -37 -11 3 -31 7 -47 10 -15 3 -35 7
-45 10 -9 3 -35 7 -57 11 -57 8 -115 27 -115 36 0 17 83 249 89 249 3 0 36
-53 74 -118z m2954 -9 l41 -128 -96 -22 c-53 -12 -115 -25 -139 -28 l-42 -5
48 77 c26 43 67 113 91 156 24 42 47 77 50 77 3 0 24 -57 47 -127z m-3127
-643 c136 -29 320 -63 405 -74 22 -3 78 -10 125 -16 47 -7 94 -13 105 -15 11
-2 23 -4 27 -4 4 -1 39 -45 80 -98 92 -123 294 -365 386 -463 65 -69 85 -100
64 -100 -5 0 -17 -8 -28 -19 -38 -35 -209 -158 -294 -211 -149 -93 -361 -189
-455 -206 -138 -24 -200 -23 -285 3 -74 23 -154 102 -199 198 -38 79 -77 225
-89 324 -14 126 -8 392 13 541 5 39 17 113 20 130 2 8 4 18 4 23 1 10 16 9
121 -13z m3297 8 c1 -7 6 -47 12 -88 7 -41 14 -88 17 -105 22 -143 22 -448 0
-562 -3 -11 -7 -37 -10 -58 -10 -60 -55 -186 -87 -242 -122 -213 -379 -232
-736 -55 -153 76 -358 210 -473 311 l-44 39 90 98 c107 117 258 297 371 444
76 100 83 106 120 108 32 2 101 11 213 27 149 22 471 83 479 90 10 10 48 4 48
-7z m-1511 -188 c-12 -14 -43 -47 -67 -75 -25 -27 -64 -70 -87 -95 l-42 -45
-37 40 c-114 123 -172 189 -168 194 1 3 98 6 214 6 l210 0 -23 -25z"/>
<path d="M3409 4196 c-2 -2 -23 -6 -46 -10 -94 -12 -257 -97 -344 -179 -81
-75 -158 -202 -194 -317 -20 -66 -28 -231 -14 -314 27 -163 150 -355 285 -448
52 -35 158 -85 219 -104 83 -25 285 -25 370 1 259 78 445 277 500 534 18 85
13 247 -10 326 -71 242 -258 428 -495 490 -58 16 -260 31 -271 21z"/>
</g>
</svg>
